<?xml version="1.0" standalone="no"?>
<!DOCTYPE svg PUBLIC "-//W3C//DTD SVG 20010904//EN"
 "http://www.w3.org/TR/2001/REC-SVG-20010904/DTD/svg10.dtd">
<svg version="1.0" xmlns="http://www.w3.org/2000/svg"
 width="1024.000000pt" height="1024.000000pt" viewBox="0 0 1024.000000 1024.000000"
 preserveAspectRatio="xMidYMid meet">
<metadata>
Created by potrace 1.14, written by Peter Selinger 2001-2017
</metadata>
<g transform="translate(0.000000,1024.000000) scale(0.100000,-0.100000)"
fill="#000000" stroke="none">
<path d="M0 5120 l0 -5120 4720 0 4720 0 0 80 0 80 320 0 320 0 0 -80 0 -80
80 0 80 0 0 5120 0 5120 -5120 0 -5120 0 0 -5120z m7815 3765 c142 -23 202
-42 322 -100 87 -43 128 -70 190 -127 196 -182 268 -308 308 -542 26 -153 18
-244 -37 -401 -31 -87 -53 -121 -138 -216 -106 -118 -315 -236 -545 -308 -310
-97 -570 -121 -1329 -121 l-499 0 4 -2917 4 -2918 -1061 -3 -1061 -2 -7 937
c-4 516 -11 1829 -16 2918 -5 1089 -9 1980 -9 1980 -1 1 -555 1 -1233 0
l-1231 0 -3 30 c-8 118 -25 1618 -18 1625 5 4 832 11 1839 14 l1830 7 31 -58
c120 -224 205 -346 429 -620 149 -181 402 -419 585 -548 62 -43 278 -157 355
-186 74 -27 225 -51 354 -56 119 -5 221 3 221 16 0 4 -20 19 -44 32 -71 39
-239 201 -277 266 -83 145 -108 221 -118 361 -10 148 2 319 29 407 48 157 159
304 306 405 62 43 199 97 305 119 119 25 380 28 514 6z"/>
</g>
</svg>
